<svg xmlns="http://www.w3.org/2000/svg" viewBox="0 0 24 24"><defs><style>.cls-1{opacity:0;}.cls-2{fill:none;stroke:#000;stroke-linecap:round;stroke-linejoin:round;stroke-width:2px;}</style></defs><title>系统管理</title><g id="图层_2" data-name="图层 2"><g id="图层_1-2" data-name="图层 1"><g class="cls-1"><rect width="24" height="24"/></g><circle class="cls-2" cx="12" cy="12" r="4"/><path class="cls-2" d="M20,12a2,2,0,0,1,1.8-2,10,10,0,0,0-3.19-5.51,2,2,0,0,1-3.43-2,9.89,9.89,0,0,0-6.37,0,2,2,0,0,1-3.43,2A10,10,0,0,0,2.2,10a2,2,0,0,1,0,4,10,10,0,0,0,3.19,5.51,2,2,0,0,1,3.43,2,9.89,9.89,0,0,0,6.37,0,2,2,0,0,1,3.43-2A10,10,0,0,0,21.8,14,2,2,0,0,1,20,12Z"/></g></g></svg>